<svg width="239" height="79" viewBox="0 0 239 79" fill="none" xmlns="http://www.w3.org/2000/svg">
<path d="M93.8516 28.418C93.875 29.2539 93.7422 29.9648 93.4531 30.5508C93.1641 31.1445 92.7695 31.6445 92.2695 32.0508C91.7773 32.4492 91.2031 32.7734 90.5469 33.0234C89.8828 33.2656 89.1914 33.4531 88.4727 33.5859C87.7461 33.7109 87.0156 33.793 86.2812 33.832C85.5469 33.8711 84.8594 33.8906 84.2188 33.8906C83.5703 33.8906 82.8477 33.8711 82.0508 33.832C81.2617 33.8008 80.3945 33.7461 79.4492 33.668L78.9453 16.6055C79.7578 16.457 80.5469 16.3477 81.3125 16.2773C82.0781 16.1992 82.7617 16.1445 83.3633 16.1133C84.0664 16.0742 84.7305 16.0625 85.3555 16.0781C85.957 16.0859 86.5547 16.1211 87.1484 16.1836C87.75 16.2383 88.3242 16.332 88.8711 16.4648C89.4258 16.5898 89.9414 16.7656 90.418 16.9922C90.8867 17.2109 91.3008 17.5 91.6602 17.8594C92.0117 18.2109 92.2891 18.6367 92.4922 19.1367C92.6953 19.6289 92.7969 20.2109 92.7969 20.8828C92.7969 21.7578 92.6367 22.5078 92.3164 23.1328C91.9961 23.75 91.5781 24.2617 91.0625 24.668C91.6875 24.8789 92.1875 25.1797 92.5625 25.5703C92.9453 25.9531 93.2422 26.3828 93.4531 26.8594C93.6562 27.3281 93.7891 27.8477 93.8516 28.418ZM85.4023 18.2109C85.043 18.2109 84.6445 18.2227 84.207 18.2461C83.8398 18.2617 83.418 18.293 82.9414 18.3398C82.4727 18.3867 81.9727 18.4492 81.4414 18.5273L81.6289 24.5039C82.3008 24.4883 82.9102 24.4688 83.457 24.4453C84.0117 24.4141 84.4883 24.3867 84.8867 24.3633C85.1211 24.3477 85.3438 24.332 85.5547 24.3164C85.7656 24.3008 85.9609 24.2852 86.1406 24.2695C86.7188 24.2383 87.2695 24.1445 87.793 23.9883C88.3242 23.8242 88.7852 23.6016 89.1758 23.3203C89.5664 23.0391 89.8672 22.6953 90.0781 22.2891C90.2969 21.8828 90.3789 21.4141 90.3242 20.8828C90.2773 20.4844 90.1719 20.1406 90.0078 19.8516C89.6797 19.2812 89.1797 18.8633 88.5078 18.5977C88.2031 18.4805 87.8672 18.3828 87.5 18.3047C87.1484 18.2422 86.793 18.207 86.4336 18.1992C86.0742 18.1836 85.7305 18.1875 85.4023 18.2109ZM87.6289 26.1562C87.5508 26.1641 87.4062 26.1758 87.1953 26.1914C86.9844 26.207 86.7812 26.2227 86.5859 26.2383C86.3906 26.2539 86.2734 26.2617 86.2344 26.2617L84.8516 26.3672C84.4297 26.3984 83.9453 26.4336 83.3984 26.4727C82.8516 26.5039 82.2852 26.5352 81.6992 26.5664L81.875 31.7578C81.9844 31.7656 82.0938 31.7734 82.2031 31.7812C82.3125 31.7812 82.418 31.7812 82.5195 31.7812H83.1406C83.3203 31.7812 83.5273 31.7812 83.7617 31.7812C83.9961 31.7812 84.2539 31.7773 84.5352 31.7695C85.0898 31.7695 85.6719 31.7422 86.2812 31.6875C86.8984 31.6328 87.5156 31.543 88.1328 31.418C88.7422 31.2852 89.293 31.0977 89.7852 30.8555C90.2695 30.6055 90.6562 30.2891 90.9453 29.9062C91.2422 29.5156 91.3789 29.0273 91.3555 28.4414C91.2852 28.0195 91.1055 27.6406 90.8164 27.3047C90.5117 26.9609 90.0977 26.6836 89.5742 26.4727C89.0586 26.2617 88.4102 26.1562 87.6289 26.1562ZM96.7812 16.3008L99.3945 16.3945L99.5469 32.5898H97.1914L96.7812 16.3008ZM120.371 24.7148C120.371 25.5508 120.266 26.3516 120.055 27.1172C119.641 28.6484 118.879 29.9844 117.77 31.125C117.215 31.6953 116.617 32.168 115.977 32.543C115.312 32.9414 114.602 33.25 113.844 33.4688C113.094 33.6875 112.312 33.7969 111.5 33.7969C110.664 33.7969 109.879 33.6875 109.145 33.4688C107.629 33.0312 106.324 32.25 105.23 31.125C104.715 30.5938 104.254 29.9805 103.848 29.2852C103.465 28.6133 103.168 27.8945 102.957 27.1289C102.746 26.3555 102.641 25.5508 102.641 24.7148C102.641 23.8789 102.746 23.0742 102.957 22.3008C103.379 20.7461 104.137 19.4102 105.23 18.293C105.762 17.7539 106.359 17.2812 107.023 16.875C107.68 16.4844 108.387 16.1836 109.145 15.9727C109.902 15.7539 110.688 15.6445 111.5 15.6445C112.312 15.6445 113.098 15.75 113.855 15.9609C115.371 16.3984 116.676 17.1758 117.77 18.293C118.309 18.8398 118.773 19.4531 119.164 20.1328C119.555 20.8047 119.852 21.5273 120.055 22.3008C120.266 23.0742 120.371 23.8789 120.371 24.7148ZM118.051 24.7148C118.051 24.1055 117.973 23.5078 117.816 22.9219C117.496 21.7656 116.934 20.7734 116.129 19.9453C115.738 19.5391 115.297 19.1875 114.805 18.8906C113.797 18.2812 112.695 17.9766 111.5 17.9766C110.594 17.9766 109.746 18.1562 108.957 18.5156C108.168 18.8672 107.477 19.3477 106.883 19.957C106.289 20.5664 105.82 21.2812 105.477 22.1016C105.141 22.9141 104.973 23.7852 104.973 24.7148C104.973 25.6445 105.141 26.5195 105.477 27.3398C105.82 28.1602 106.289 28.875 106.883 29.4844C107.477 30.0938 108.168 30.5781 108.957 30.9375C109.746 31.2891 110.594 31.4648 111.5 31.4648C112.102 31.4648 112.684 31.3828 113.246 31.2188C114.348 30.9062 115.309 30.3281 116.129 29.4844C116.527 29.0703 116.871 28.6172 117.16 28.125C117.441 27.625 117.66 27.0898 117.816 26.5195C117.973 25.9414 118.051 25.3398 118.051 24.7148ZM125.809 24.7148L132.746 24.4336L132.793 26.6836L125.832 27.0234L125.926 33L123.676 33.0938L123.406 16.3945L136.133 16.1953L136.051 18.4336L125.715 18.5977L125.809 24.7148ZM140.973 31.582L151.344 30.7734L151.461 33.2695L138.688 34.1484L138.617 16.3242L141.043 16.1953L140.973 31.582ZM170.668 24.7148C170.668 25.5508 170.562 26.3516 170.352 27.1172C169.938 28.6484 169.176 29.9844 168.066 31.125C167.512 31.6953 166.914 32.168 166.273 32.543C165.609 32.9414 164.898 33.25 164.141 33.4688C163.391 33.6875 162.609 33.7969 161.797 33.7969C160.961 33.7969 160.176 33.6875 159.441 33.4688C157.926 33.0312 156.621 32.25 155.527 31.125C155.012 30.5938 154.551 29.9805 154.145 29.2852C153.762 28.6133 153.465 27.8945 153.254 27.1289C153.043 26.3555 152.938 25.5508 152.938 24.7148C152.938 23.8789 153.043 23.0742 153.254 22.3008C153.676 20.7461 154.434 19.4102 155.527 18.293C156.059 17.7539 156.656 17.2812 157.32 16.875C157.977 16.4844 158.684 16.1836 159.441 15.9727C160.199 15.7539 160.984 15.6445 161.797 15.6445C162.609 15.6445 163.395 15.75 164.152 15.9609C165.668 16.3984 166.973 17.1758 168.066 18.293C168.605 18.8398 169.07 19.4531 169.461 20.1328C169.852 20.8047 170.148 21.5273 170.352 22.3008C170.562 23.0742 170.668 23.8789 170.668 24.7148ZM168.348 24.7148C168.348 24.1055 168.27 23.5078 168.113 22.9219C167.793 21.7656 167.23 20.7734 166.426 19.9453C166.035 19.5391 165.594 19.1875 165.102 18.8906C164.094 18.2812 162.992 17.9766 161.797 17.9766C160.891 17.9766 160.043 18.1562 159.254 18.5156C158.465 18.8672 157.773 19.3477 157.18 19.957C156.586 20.5664 156.117 21.2812 155.773 22.1016C155.438 22.9141 155.27 23.7852 155.27 24.7148C155.27 25.6445 155.438 26.5195 155.773 27.3398C156.117 28.1602 156.586 28.875 157.18 29.4844C157.773 30.0938 158.465 30.5781 159.254 30.9375C160.043 31.2891 160.891 31.4648 161.797 31.4648C162.398 31.4648 162.98 31.3828 163.543 31.2188C164.645 30.9062 165.605 30.3281 166.426 29.4844C166.824 29.0703 167.168 28.6172 167.457 28.125C167.738 27.625 167.957 27.0898 168.113 26.5195C168.27 25.9414 168.348 25.3398 168.348 24.7148ZM187.789 22.4648C187.766 23.0664 187.645 23.6172 187.426 24.1172C187.207 24.6172 186.918 25.0664 186.559 25.4648C186.199 25.8711 185.781 26.2344 185.305 26.5547C184.828 26.8672 184.32 27.1367 183.781 27.3633L187.191 32.7305L184.766 33.5273L181.484 28.0547C181.109 28.125 180.719 28.1836 180.312 28.2305C179.914 28.2773 179.473 28.3008 178.988 28.3008C178.598 28.3008 178.168 28.2852 177.699 28.2539C177.238 28.2148 176.754 28.1484 176.246 28.0547L176.293 33.0234L173.82 33.1172V16.5352C174.492 16.332 175.164 16.1797 175.836 16.0781C176.508 15.9766 177.121 15.8984 177.676 15.8438C178.324 15.7812 178.945 15.7461 179.539 15.7383C180.047 15.7383 180.609 15.7734 181.227 15.8438C181.844 15.9141 182.461 16.0391 183.078 16.2188C183.703 16.3984 184.309 16.6484 184.895 16.9688C185.473 17.2891 185.984 17.6953 186.43 18.1875C186.867 18.6875 187.211 19.2891 187.461 19.9922C187.711 20.6953 187.82 21.5195 187.789 22.4648ZM179.539 18.0938C179.359 18.0938 179.176 18.0977 178.988 18.1055C178.809 18.1133 178.621 18.125 178.426 18.1406C178.098 18.1641 177.734 18.1992 177.336 18.2461C176.938 18.2852 176.551 18.3477 176.176 18.4336L176.223 25.8984C176.59 25.9688 176.957 26.0195 177.324 26.0508C177.699 26.0742 178.062 26.0859 178.414 26.0859C179.352 26.0859 180.238 25.9805 181.074 25.7695C181.918 25.5508 182.656 25.2539 183.289 24.8789C183.922 24.5039 184.426 24.0625 184.801 23.5547C185.176 23.0391 185.363 22.4844 185.363 21.8906C185.363 21.2891 185.219 20.7539 184.93 20.2852C184.648 19.8164 184.25 19.418 183.734 19.0898C182.672 18.4258 181.273 18.0938 179.539 18.0938ZM206.656 33.2695L203.891 33.668C203.43 32.0742 202.941 30.4922 202.426 28.9219L192.992 29.332C192.43 30.8086 191.895 32.3047 191.387 33.8203L188.727 33.457C189.828 30.5039 191.047 27.5977 192.383 24.7383C193.727 21.8789 195.156 19.0469 196.672 16.2422L199.953 16.3008C201.297 19.0117 202.523 21.7773 203.633 24.5977C204.742 27.4102 205.75 30.3008 206.656 33.2695ZM198.066 18.1875C197.277 19.6875 196.531 21.1953 195.828 22.7109C195.125 24.2188 194.453 25.7461 193.812 27.293L201.734 26.9531C201.203 25.4531 200.633 23.9805 200.023 22.5352C199.414 21.0898 198.762 19.6406 198.066 18.1875Z" fill="black"/>
<path d="M82.2109 55H78.5938V43.5781H81.7656C83.1719 43.5781 84.2109 43.7969 84.8828 44.2344C85.5547 44.6719 85.8906 45.3802 85.8906 46.3594C85.8906 47.0208 85.6979 47.5859 85.3125 48.0547C84.9271 48.5234 84.3776 48.8229 83.6641 48.9531V49.0156C84.4974 49.1458 85.1302 49.4323 85.5625 49.875C85.9948 50.3177 86.2109 50.9427 86.2109 51.75C86.2109 52.4948 86.0443 53.1042 85.7109 53.5781C85.3776 54.0573 84.9062 54.4141 84.2969 54.6484C83.6927 54.8828 82.9974 55 82.2109 55ZM81.7656 44.3906H79.5234V48.6172H81.9688C83.0156 48.6172 83.7708 48.4375 84.2344 48.0781C84.6979 47.7135 84.9297 47.1719 84.9297 46.4531C84.9297 45.7188 84.6771 45.1927 84.1719 44.875C83.6719 44.5521 82.8698 44.3906 81.7656 44.3906ZM81.9844 49.4141H79.5234V54.2031H82.1328C84.2005 54.2031 85.2344 53.3698 85.2344 51.7031C85.2344 50.9167 84.9688 50.3385 84.4375 49.9688C83.9115 49.599 83.0938 49.4141 81.9844 49.4141ZM89.6328 54.1719H94.9766V55H88.7031V43.5781H94.9766V44.4062H89.6328V48.6016H94.6719V49.4141H89.6328V54.1719ZM103.82 54.1719V55H97.5469V43.5781H98.4766V54.1719H103.82ZM106.711 54.1719H112.055V55H105.781V43.5781H112.055V44.4062H106.711V48.6016H111.75V49.4141H106.711V54.1719ZM114.789 54.1719H121.602V55H113.617V54.3125L120.258 44.4062H113.938V43.5781H121.406V44.2656L114.789 54.1719ZM127.578 43.5469L131.961 55H130.984L129.469 51.0625H124.727L123.18 55H122.234L126.711 43.5469H127.578ZM126.617 46.1172L125.031 50.2344H129.18L127.641 46.1016C127.599 45.9557 127.523 45.724 127.414 45.4062C127.31 45.0833 127.216 44.7995 127.133 44.5547C127.091 44.6901 127.047 44.8281 127 44.9688C126.953 45.1094 126.906 45.25 126.859 45.3906C126.807 45.5312 126.76 45.6615 126.719 45.7812C126.682 45.901 126.648 46.013 126.617 46.1172ZM147.398 49.2734C147.398 50.2474 147.263 51.125 146.992 51.9062C146.721 52.6927 146.315 53.3516 145.773 53.8828C145.237 54.4141 144.568 54.776 143.766 54.9688L146.258 57.7188H144.953L142.742 55.125C142.596 55.1458 142.435 55.1562 142.258 55.1562C141.107 55.1562 140.151 54.9089 139.391 54.4141C138.625 53.9193 138.052 53.2266 137.672 52.3359C137.297 51.4453 137.109 50.4193 137.109 49.2578C137.109 48.0964 137.305 47.0781 137.695 46.2031C138.086 45.3281 138.667 44.6432 139.438 44.1484C140.208 43.6484 141.167 43.3984 142.312 43.3984C143.417 43.3984 144.341 43.6354 145.086 44.1094C145.836 44.5833 146.409 45.2578 146.805 46.1328C147.201 47.0078 147.398 48.0547 147.398 49.2734ZM138.086 49.2734C138.086 50.2943 138.237 51.1797 138.539 51.9297C138.836 52.6953 139.292 53.2891 139.906 53.7109C140.526 54.1328 141.31 54.3438 142.258 54.3438C143.221 54.3438 144.01 54.1328 144.625 53.7109C145.234 53.2891 145.685 52.7005 145.977 51.9453C146.273 51.1849 146.422 50.2943 146.422 49.2734C146.422 47.6953 146.078 46.4609 145.391 45.5703C144.703 44.6797 143.677 44.2344 142.312 44.2344C141.365 44.2344 140.576 44.4427 139.945 44.8594C139.315 45.2812 138.846 45.8724 138.539 46.6328C138.237 47.388 138.086 48.2682 138.086 49.2734ZM157.555 51.0312V43.5781H158.469V50.9688C158.469 52.2708 158.089 53.2943 157.328 54.0391C156.573 54.7839 155.508 55.1562 154.133 55.1562C152.768 55.1562 151.716 54.7839 150.977 54.0391C150.242 53.2943 149.875 52.2604 149.875 50.9375V43.5781H150.805V50.9375C150.805 52.0469 151.091 52.8932 151.664 53.4766C152.242 54.0547 153.086 54.3438 154.195 54.3438C155.273 54.3438 156.102 54.0547 156.68 53.4766C157.263 52.8932 157.555 52.0781 157.555 51.0312ZM162.477 54.1719H167.82V55H161.547V43.5781H167.82V44.4062H162.477V48.6016H167.516V49.4141H162.477V54.1719ZM180.531 49.9453H175.477V55H174.547V43.5781H180.82V44.4062H175.477V49.1094H180.531V49.9453ZM188.914 54.1719V55H182.641V43.5781H183.57V54.1719H188.914ZM200.555 49.2734C200.555 50.4297 200.362 51.4531 199.977 52.3438C199.591 53.2292 199.018 53.9193 198.258 54.4141C197.497 54.9089 196.549 55.1562 195.414 55.1562C194.263 55.1562 193.307 54.9089 192.547 54.4141C191.781 53.9193 191.208 53.2266 190.828 52.3359C190.453 51.4453 190.266 50.4193 190.266 49.2578C190.266 48.0964 190.461 47.0781 190.852 46.2031C191.242 45.3281 191.823 44.6432 192.594 44.1484C193.365 43.6484 194.323 43.3984 195.469 43.3984C196.573 43.3984 197.497 43.6354 198.242 44.1094C198.992 44.5833 199.565 45.2578 199.961 46.1328C200.357 47.0078 200.555 48.0547 200.555 49.2734ZM191.242 49.2734C191.242 50.2943 191.393 51.1797 191.695 51.9297C191.992 52.6953 192.448 53.2891 193.062 53.7109C193.682 54.1328 194.466 54.3438 195.414 54.3438C196.378 54.3438 197.167 54.1328 197.781 53.7109C198.391 53.2891 198.841 52.7005 199.133 51.9453C199.43 51.1849 199.578 50.2943 199.578 49.2734C199.578 47.6953 199.234 46.4609 198.547 45.5703C197.859 44.6797 196.833 44.2344 195.469 44.2344C194.521 44.2344 193.732 44.4427 193.102 44.8594C192.471 45.2812 192.003 45.8724 191.695 46.6328C191.393 47.388 191.242 48.2682 191.242 49.2734ZM203.156 55V43.5781H206.008C207.372 43.5781 208.398 43.8177 209.086 44.2969C209.773 44.776 210.117 45.5807 210.117 46.7109C210.117 47.5859 209.885 48.2682 209.422 48.7578C208.958 49.2474 208.38 49.599 207.688 49.8125L210.82 55H209.719L206.805 50.0703H204.086V55H203.156ZM205.922 44.4062H204.086V49.2734H206.242C207.169 49.2734 207.885 49.0547 208.391 48.6172C208.901 48.1797 209.156 47.5547 209.156 46.7422C209.156 45.8672 208.891 45.2604 208.359 44.9219C207.833 44.5781 207.021 44.4062 205.922 44.4062ZM213.68 54.1719H219.023V55H212.75V43.5781H219.023V44.4062H213.68V48.6016H218.719V49.4141H213.68V54.1719ZM226.453 44.25C225.516 44.25 224.711 44.4609 224.039 44.8828C223.367 45.3047 222.852 45.8906 222.492 46.6406C222.138 47.3906 221.961 48.2682 221.961 49.2734C221.961 50.2891 222.125 51.1771 222.453 51.9375C222.776 52.6927 223.258 53.2812 223.898 53.7031C224.539 54.1198 225.339 54.3281 226.297 54.3281C226.849 54.3281 227.357 54.2865 227.82 54.2031C228.289 54.1146 228.729 54.0078 229.141 53.8828V54.6797C228.75 54.8307 228.315 54.9479 227.836 55.0312C227.362 55.1146 226.818 55.1562 226.203 55.1562C225.047 55.1562 224.083 54.9115 223.312 54.4219C222.542 53.9323 221.961 53.2448 221.57 52.3594C221.18 51.474 220.984 50.4401 220.984 49.2578C220.984 48.138 221.201 47.1328 221.633 46.2422C222.065 45.362 222.688 44.6719 223.5 44.1719C224.318 43.6667 225.302 43.4141 226.453 43.4141C227.583 43.4141 228.586 43.6276 229.461 44.0547L229.094 44.8594C228.266 44.4531 227.385 44.25 226.453 44.25ZM232.492 54.1719H237.836V55H231.562V43.5781H237.836V44.4062H232.492V48.6016H237.531V49.4141H232.492V54.1719Z" fill="black"/>
<rect x="66" width="3" height="79" fill="black"/>
<g clip-path="url(#clip0_1007_2)">
<path d="M57.9945 31.1121C57.9462 29.5858 56.7137 28.3571 55.1864 28.3049L54.7843 28.3C53.8467 28.3 51.2434 28.3909 48.0244 29.0173C47.4482 24.6674 46.2814 21.5789 46.1848 21.3324C45.8987 20.5948 45.3225 20.0071 44.5918 19.7045C44.2361 19.5576 43.8591 19.4841 43.4821 19.4841C43.0838 19.4841 42.6865 19.5662 42.3144 19.7296C42.1017 19.8234 39.7594 20.8789 36.8372 22.936C34.2765 18.064 31.3138 14.9233 31.0963 14.6962C30.5482 14.1239 29.7913 13.801 29.0006 13.801C28.2099 13.801 27.453 14.1239 26.9058 14.6951C26.6883 14.9223 23.7216 18.0679 21.16 22.9446C18.2445 20.8933 15.8995 19.8222 15.6878 19.7285C15.3156 19.5652 14.9182 19.4831 14.5201 19.4831C14.1431 19.4831 13.7661 19.5565 13.4104 19.7035C12.6796 20.0061 12.1043 20.5948 11.8173 21.3314C11.7216 21.5779 10.5548 24.6653 9.97875 29.0163C6.75784 28.389 4.15556 28.3 3.21794 28.3L2.81387 28.3049C1.28752 28.3571 0.054012 29.5858 0.00575445 31.1121C-0.0116908 31.6554 -0.320041 44.5188 7.68006 52.5198C14.989 59.8287 26.4585 60.1989 28.6836 60.1989L28.9813 60.1951C28.9871 60.1951 28.9929 60.1989 28.9988 60.1989C29.0046 60.1989 29.0103 60.1951 29.0162 60.1951L29.3139 60.1989C31.5392 60.1989 43.0087 59.8287 50.3175 52.5198C58.3202 44.5197 58.0119 31.6563 57.9945 31.1121ZM43.4821 22.3832C43.4821 22.3832 44.644 25.4262 45.1747 29.6969C43.4946 30.1677 41.7489 30.7999 40.0157 31.6457C39.5662 29.4871 38.8924 27.4639 38.0987 25.6137C41.0606 23.4677 43.4821 22.3832 43.4821 22.3832ZM14.5189 22.3832C14.5189 22.3832 16.9404 23.4619 19.9042 25.6079C19.1086 27.4639 18.432 29.4949 17.9825 31.6612C16.2493 30.8153 14.5064 30.1735 12.8254 29.7018C13.356 25.4292 14.5189 22.3832 14.5189 22.3832ZM9.73203 50.4695C2.52647 43.2641 2.90449 31.204 2.90449 31.204C2.90449 31.204 3.01369 31.201 3.21669 31.201C4.73624 31.201 11.5087 31.4427 17.5107 34.6761C17.4411 35.4389 17.4004 36.2131 17.4004 37C17.4004 45.9271 22.2453 53.468 25.0206 57.0591C20.8631 56.5652 14.3189 55.0563 9.73203 50.4695ZM29.0643 57.2313C29.0082 57.213 28.9531 57.1955 28.8815 57.1695C27.8608 56.0568 20.3005 47.4545 20.3005 37.0001C20.3005 25.7887 29.0005 16.7002 29.0005 16.7002C29.0005 16.7002 37.7004 25.7887 37.7004 37.0001C37.7004 47.758 29.7119 56.5373 29.0643 57.2313ZM48.2699 50.4695C43.683 55.0563 37.1388 56.5652 32.9812 57.0593C35.7555 53.4681 40.6004 45.9272 40.6004 37.0001C40.6004 36.2084 40.5599 35.4292 40.4883 34.6618C46.4902 31.4312 53.2656 31.2001 54.7842 31.2001C54.9872 31.2001 55.0964 31.2031 55.0964 31.2031C55.0964 31.2031 55.4744 43.2641 48.2699 50.4695Z" fill="black"/>
</g>
<defs>
<clipPath id="clip0_1007_2">
<rect width="58" height="58" fill="white" transform="translate(0 8)"/>
</clipPath>
</defs>
</svg>
